HIERARCHY
ROOT Hips
{
    OFFSET   0.000000   0.000000   0.000000
    CHANNELS 6 Xposition Yposition Zposition Zrotation Xrotation Yrotation
    JOINT Chest
    {
        OFFSET   0.000000   8.007230   0.000000
        CHANNELS 3 Zrotation Xrotation Yrotation
        JOINT Chest2
        {
            OFFSET   0.000000  22.077100   0.000000
            CHANNELS 3 Zrotation Xrotation Yrotation
            JOINT Neck
            {
                OFFSET   0.000000  23.254700   0.000000
                CHANNELS 3 Zrotation Xrotation Yrotation
                JOINT Head
                {
                    OFFSET   0.000010  14.370000   1.956610
                    CHANNELS 3 Zrotation Xrotation Yrotation
                    End Site
                    {
                        OFFSET   0.000000  19.566000   0.000000
                    }
                }
            }
            JOINT LeftCollar
            {
                OFFSET   3.911900  19.017000  -0.467063
                CHANNELS 3 Zrotation Xrotation Yrotation
                JOINT LeftShoulder
                {
                    OFFSET  10.383700   0.000000   0.000000
                    CHANNELS 3 Zrotation Xrotation Yrotation
                    JOINT LeftElbow
                    {
                        OFFSET  26.662100   0.001671   0.000522
                        CHANNELS 3 Zrotation Xrotation Yrotation
                        JOINT LeftWrist
                        {
                            OFFSET  28.869000   0.000037  -0.000114
                            CHANNELS 3 Zrotation Xrotation Yrotation
                            JOINT LeftFinger0
                            {
                                OFFSET   2.044650  -2.323450   3.252850
                                CHANNELS 3 Zrotation Xrotation Yrotation
                                JOINT LeftFinger01
                                {
                                    OFFSET   3.088140   0.000000   0.000000
                                    CHANNELS 3 Zrotation Xrotation Yrotation
                                    JOINT LeftFinger02
                                    {
                                        OFFSET   2.639460   0.000000   0.000000
                                        CHANNELS 3 Zrotation Xrotation Yrotation
                                        End Site
                                        {
                                            OFFSET   2.582190   0.000000   0.000000
                                        }
                                    }
                                }
                            }
                            JOINT LeftFinger1
                            {
                                OFFSET   8.364480   0.000000   3.252850
                                CHANNELS 3 Zrotation Xrotation Yrotation
                                JOINT LeftFinger11
                                {
                                    OFFSET   4.646930   0.000000   0.000000
                                    CHANNELS 3 Zrotation Xrotation Yrotation
                                    JOINT LeftFinger12
                                    {
                                        OFFSET   2.323470   0.000000   0.000000
                                        CHANNELS 3 Zrotation Xrotation Yrotation
                                        End Site
                                        {
                                            OFFSET   2.273050   0.000000   0.000000
                                        }
                                    }
                                }
                            }
                            JOINT LeftFinger2
                            {
                                OFFSET   8.364490   0.000016   1.078090
                                CHANNELS 3 Zrotation Xrotation Yrotation
                                JOINT LeftFinger21
                                {
                                    OFFSET   5.111620   0.000000   0.000000
                                    CHANNELS 3 Zrotation Xrotation Yrotation
                                    JOINT LeftFinger22
                                    {
                                        OFFSET   2.788150   0.000013   0.000000
                                        CHANNELS 3 Zrotation Xrotation Yrotation
                                        End Site
                                        {
                                            OFFSET   2.727660   0.000000   0.000000
                                        }
                                    }
                                }
                            }
                            JOINT LeftFinger3
                            {
                                OFFSET   7.899780   0.000016  -1.078090
                                CHANNELS 3 Zrotation Xrotation Yrotation
                                JOINT LeftFinger31
                                {
                                    OFFSET   4.646930   0.000000   0.000000
                                    CHANNELS 3 Zrotation Xrotation Yrotation
                                    JOINT LeftFinger32
                                    {
                                        OFFSET   2.323470   0.000000   0.000000
                                        CHANNELS 3 Zrotation Xrotation Yrotation
                                        End Site
                                        {
                                            OFFSET   2.273050   0.000000   0.000000
                                        }
                                    }
                                }
                            }
                            JOINT LeftFinger4
                            {
                                OFFSET   7.435080   0.000000  -3.252850
                                CHANNELS 3 Zrotation Xrotation Yrotation
                                JOINT LeftFinger41
                                {
                                    OFFSET   3.717550   0.000000   0.000000
                                    CHANNELS 3 Zrotation Xrotation Yrotation
                                    JOINT LeftFinger42
                                    {
                                        OFFSET   1.858760   0.000000   0.000000
                                        CHANNELS 3 Zrotation Xrotation Yrotation
                                        End Site
                                        {
                                            OFFSET   1.818440   0.000000   0.000000
                                        }
                                    }
                                }
                            }
                        }
                    }
                }
            }
            JOINT RightCollar
            {
                OFFSET  -3.911900  19.017000  -0.467064
                CHANNELS 3 Zrotation Xrotation Yrotation
                JOINT RightShoulder
                {
                    OFFSET -10.383700   0.000000   0.000000
                    CHANNELS 3 Zrotation Xrotation Yrotation
                    JOINT RightElbow
                    {
                        OFFSET -26.662100   0.001633   0.000260
                        CHANNELS 3 Zrotation Xrotation Yrotation
                        JOINT RightWrist
                        {
                            OFFSET -28.869000  -0.000045  -0.000080
                            CHANNELS 3 Zrotation Xrotation Yrotation
                            JOINT RightFinger0
                            {
                                OFFSET  -2.044660  -2.323490   3.252850
                                CHANNELS 3 Zrotation Xrotation Yrotation
                                JOINT RightFinger01
                                {
                                    OFFSET  -3.088140   0.000000   0.000000
                                    CHANNELS 3 Zrotation Xrotation Yrotation
                                    JOINT RightFinger02
                                    {
                                        OFFSET  -2.639450   0.000000   0.000000
                                        CHANNELS 3 Zrotation Xrotation Yrotation
                                        End Site
                                        {
                                            OFFSET  -2.582190   0.000000   0.000000
                                        }
                                    }
                                }
                            }
                            JOINT RightFinger1
                            {
                                OFFSET  -8.364480   0.000000   3.252850
                                CHANNELS 3 Zrotation Xrotation Yrotation
                                JOINT RightFinger11
                                {
                                    OFFSET  -4.646920   0.000000   0.000000
                                    CHANNELS 3 Zrotation Xrotation Yrotation
                                    JOINT RightFinger12
                                    {
                                        OFFSET  -2.323470   0.000000   0.000000
                                        CHANNELS 3 Zrotation Xrotation Yrotation
                                        End Site
                                        {
                                            OFFSET  -2.273050   0.000000   0.000000
                                        }
                                    }
                                }
                            }
                            JOINT RightFinger2
                            {
                                OFFSET  -8.364480   0.000000   1.078090
                                CHANNELS 3 Zrotation Xrotation Yrotation
                                JOINT RightFinger21
                                {
                                    OFFSET  -5.111610   0.000000   0.000000
                                    CHANNELS 3 Zrotation Xrotation Yrotation
                                    JOINT RightFinger22
                                    {
                                        OFFSET  -2.788160   0.000000   0.000000
                                        CHANNELS 3 Zrotation Xrotation Yrotation
                                        End Site
                                        {
                                            OFFSET  -2.727660   0.000000   0.000000
                                        }
                                    }
                                }
                            }
                            JOINT RightFinger3
                            {
                                OFFSET  -7.899780   0.000000  -1.078090
                                CHANNELS 3 Zrotation Xrotation Yrotation
                                JOINT RightFinger31
                                {
                                    OFFSET  -4.646930   0.000000   0.000000
                                    CHANNELS 3 Zrotation Xrotation Yrotation
                                    JOINT RightFinger32
                                    {
                                        OFFSET  -2.323470   0.000000   0.000000
                                        CHANNELS 3 Zrotation Xrotation Yrotation
                                        End Site
                                        {
                                            OFFSET  -2.273050   0.000000   0.000000
                                        }
                                    }
                                }
                            }
                            JOINT RightFinger4
                            {
                                OFFSET  -7.435090   0.000000  -3.252850
                                CHANNELS 3 Zrotation Xrotation Yrotation
                                JOINT RightFinger41
                                {
                                    OFFSET  -3.717550   0.000000   0.000000
                                    CHANNELS 3 Zrotation Xrotation Yrotation
                                    JOINT RightFinger42
                                    {
                                        OFFSET  -1.858760   0.000000   0.000000
                                        CHANNELS 3 Zrotation Xrotation Yrotation
                                        End Site
                                        {
                                            OFFSET  -1.818440   0.000000   0.000000
                                        }
                                    }
                                }
                            }
                        }
                    }
                }
            }
        }
    }
    JOINT LeftHip
    {
        OFFSET   9.782990   0.000000   0.000000
        CHANNELS 3 Zrotation Xrotation Yrotation
        JOINT LeftKnee
        {
            OFFSET  -0.000063 -41.789100   0.001657
            CHANNELS 3 Zrotation Xrotation Yrotation
            JOINT LeftAnkle
            {
                OFFSET   0.000078 -41.133200  -0.000113
                CHANNELS 3 Zrotation Xrotation Yrotation
                JOINT LeftToe
                {
                    OFFSET   0.000000  -6.358970  14.674500
                    CHANNELS 3 Zrotation Xrotation Yrotation
                    End Site
                    {
                        OFFSET   0.000000   0.000000   3.913200
                    }
                }
            }
        }
    }
    JOINT RightHip
    {
        OFFSET  -9.782990   0.000000   0.000000
        CHANNELS 3 Zrotation Xrotation Yrotation
        JOINT RightKnee
        {
            OFFSET   0.000053 -41.789200   0.000277
            CHANNELS 3 Zrotation Xrotation Yrotation
            JOINT RightAnkle
            {
                OFFSET   0.000030 -41.133200  -0.000150
                CHANNELS 3 Zrotation Xrotation Yrotation
                JOINT RightToe
                {
                    OFFSET   0.000000  -6.358960  14.674500
                    CHANNELS 3 Zrotation Xrotation Yrotation
                    End Site
                    {
                        OFFSET   0.000000   0.000000   3.913200
                    }
                }
            }
        }
    }
}
MOTION
Frames: 6
Frame Time:   0.016667
  2.627850  89.511700  -1.692480  -4.660010 -10.445300  -8.029400   0.139937   6.334730   1.168080   0.150370  12.671000   2.342180   0.728959  -1.289000   0.014031   1.204520  -2.612430   2.218520  -5.226710  -1.592020   2.795480 -72.285900  18.858900  -3.899020   0.016770  -0.623157 -18.571800  11.034900  -4.886220   4.344290  42.288700  39.017900 -71.134700 -32.082400   0.000000  -0.000000 -11.031000   0.001550  -0.000000 -30.809700   5.233620  -8.686890 -25.534200   0.008208   0.000833 -17.874000   0.011865   0.000459 -28.292500  -1.644070   3.063900 -34.521600  -0.000705   0.001637 -22.991400   0.011034  -0.000823 -27.850100  -1.620500   3.076560 -31.328100  -0.009926   0.000401 -20.864500   0.000569   0.000221 -28.910100  -1.676770   3.045820 -43.431500  -0.002117   0.000186 -28.925300  -0.000315  -0.009949  12.260700   0.791908   8.093990  68.270600   4.159960  -4.991110  -2.946000  -6.219910  15.730300 -10.425300   2.049010   3.472560 -37.605000  35.568300  64.639400  36.708300   0.001178  -0.004935  13.348600   0.003547  -0.002616  34.346500  11.060700  15.697500  29.351800  -0.002317   0.002346  20.546200   0.000386   0.002118  36.547800   4.708560   6.329670  54.079400  -0.000803  -0.000115  36.240500   0.001127   0.002641  35.217700   2.553380   3.612120  52.944600  -0.002100   0.004613  35.261100   0.005528  -0.000764  47.009400  -3.392920  -3.156230  70.654700   0.005776   0.004895  47.056000   0.005760   0.003508   2.062230  12.764400   6.391080   0.251768   0.027910   1.993130   0.636107  -3.085350   4.253650   0.000000   0.000000   0.000000   4.019730   7.972460   2.463120  -3.674420   6.846570  -8.948680   2.519600  -3.921460   3.453070   0.000000   0.000000   0.000000
  2.627690  89.511700  -1.715440  -4.661540 -10.475200  -8.015050   0.139790   6.354070   1.168150   0.149659  12.709700   2.342400   0.728955  -1.282180   0.014031   1.204540  -2.598620   2.230270  -5.224440  -1.604020   2.795570 -72.281700  18.893400  -3.912100   0.009617  -0.645412 -18.566800  11.025200  -4.886320   4.328810  42.284200  39.024300 -71.149200 -32.083000   0.000000   0.000027 -11.030800   0.001555  -0.000000 -30.819700   5.233660  -8.687030 -25.541800   0.008206   0.000834 -17.879400   0.011862   0.000460 -28.292500  -1.643780   3.062550 -34.537500  -0.000708   0.001639 -23.001900   0.011036  -0.000819 -27.850000  -1.620220   3.075190 -31.342400  -0.009930   0.000403 -20.874100   0.000563   0.000222 -28.918900  -1.676460   3.044330 -43.444800  -0.002117   0.000183 -28.934200  -0.000314  -0.009948  12.275200   0.751869   8.106610  68.242500   4.242920  -4.991640  -2.936880  -6.143170  15.742000 -10.405100   2.103040   3.480010 -37.605400  35.539900  64.656500  36.706300   0.001181  -0.004935  13.348600   0.003539  -0.002616  34.346100  11.060800  15.697700  29.351500  -0.002298   0.002333  20.546000   0.000384   0.002103  36.543300   4.708630   6.329360  54.079700  -0.000807  -0.000116  36.240500   0.001098   0.002630  35.215400   2.569100   3.634280  52.944100  -0.002101   0.004613  35.260800   0.005522  -0.000772  47.017100  -3.392920  -3.156230  70.666100   0.005774   0.004893  47.063700   0.005752   0.003502   2.060290  12.781800   6.389850   0.256516   0.016963   2.000520   0.635020  -3.062840   4.232360   0.000000   0.000000   0.000000   4.024260   7.959990   2.463190  -3.683140   6.894400  -8.933530   2.527000  -3.931130   3.428930   0.000000   0.000000   0.000000
  2.627430  89.511700  -1.753670  -4.664740 -10.526300  -7.994060   0.139526   6.387820   1.168280   0.148401  12.777200   2.342840   0.728951  -1.272230   0.014035   1.204910  -2.578510   2.252720  -5.219420  -1.623490   2.795660 -72.273700  18.952600  -3.940750  -0.002789  -0.683451 -18.558600  11.012700  -4.886460   4.305950  42.279800  39.033800 -71.170800 -32.083700   0.000000   0.000065 -11.030400   0.001560   0.000000 -30.832200   5.233750  -8.687160 -25.551700   0.008204   0.000837 -17.886200   0.011860   0.000466 -28.292500  -1.643390   3.059580 -34.553400  -0.000717   0.001642 -23.012500   0.011045  -0.000814 -27.849900  -1.619820   3.072190 -31.357300  -0.009945   0.000405 -20.884000   0.000551   0.000222 -28.927700  -1.676040   3.041190 -43.458200  -0.002117   0.000181 -28.943100  -0.000313  -0.009947  12.299400   0.689365   8.127920  68.199200   4.378630  -4.992510  -2.924730  -6.065570  15.782800 -10.351500   2.188190   3.492350 -37.541300  35.475000  64.642500  36.697200   0.001191  -0.004940  13.348600   0.003528  -0.002619  34.343400  11.060900  15.698700  29.349500  -0.002254   0.002300  20.544600   0.000382   0.002065  36.531800   4.708750   6.329060  54.079900  -0.000815  -0.000117  36.240500   0.001030   0.002602  35.211300   2.584810   3.656450  52.940700  -0.002107   0.004611  35.258500   0.005508  -0.000793  47.024900  -3.392920  -3.156230  70.677600   0.005771   0.004891  47.071300   0.005734   0.003486   2.057240  12.811900   6.386790   0.264408   0.004311   2.013090   0.632550  -3.028770   4.200700   0.000000   0.000000   0.000000   4.031890   7.947520   2.463270  -3.696690   6.971160  -8.912880   2.537430  -3.947060   3.394780  -0.000000   0.000000  -0.000000
  2.627180  89.511700  -1.784150  -4.668420 -10.570600  -7.981590   0.139250   6.418320   1.168470   0.147199  12.838200   2.343370   0.732862  -1.267510   0.014050   1.209200  -2.569160   2.274490  -5.212870  -1.638300   2.795650 -72.264300  19.005700  -3.977300  -0.013988  -0.716795 -18.554100  11.009200  -4.886430   4.292750  42.284400  39.039000 -71.182600 -32.077300   0.000000   0.000080 -11.030300   0.001547  -0.000000 -30.835000   5.233880  -8.687130 -25.554200   0.008206   0.000851 -17.888000   0.011867   0.000478 -28.292500  -1.643220   3.054450 -34.551600  -0.000729   0.001647 -23.011300   0.011061  -0.000809 -27.850000  -1.619660   3.067020 -31.357700  -0.009973   0.000405 -20.884200   0.000534   0.000231 -28.926100  -1.675870   3.036140 -43.455700  -0.002119   0.000182 -28.941500  -0.000313  -0.009949  12.322300   0.648361   8.150040  68.168000   4.484940  -4.983850  -2.921940  -6.084160  15.850100 -10.276300   2.258640   3.504450 -37.482200  35.381500  64.530800  36.679500   0.001207  -0.004957  13.341500   0.003523  -0.002624  34.311800  11.060200  15.712200  29.324900  -0.002193   0.002247  20.527400   0.000381   0.002007  36.519400   4.708860   6.330040  54.079900  -0.000820  -0.000122  36.237500   0.000928   0.002556  35.204800   2.574070   3.642020  52.929900  -0.002120   0.004609  35.251300   0.005488  -0.000827  47.015100  -3.389290  -3.154000  70.662700   0.005765   0.004890  47.061400   0.005705   0.003461   2.054520  12.845800   6.381770   0.270446   0.002323   2.026350   0.629181  -3.005070   4.180530   0.000000   0.000000   0.000000   4.038170   7.947600   2.463220  -3.704330   7.026610  -8.909630   2.541220  -3.959530   3.381910  -0.000000   0.000000  -0.000000
  2.627040  89.511700  -1.814560  -4.673270 -10.615000  -7.976320   0.138991   6.450020   1.168620   0.145998  12.901500   2.343910   0.736774  -1.263880   0.014066   1.213800  -2.561970   2.304170  -5.204700  -1.651750   2.795400 -72.255900  19.056600  -4.023490  -0.025316  -0.749421 -18.546300  11.007900  -4.885670   4.285210  42.289200  39.042600 -71.191100 -32.070900   0.000000   0.000084 -11.030200   0.001530  -0.000000 -30.835500   5.234010  -8.686890 -25.554600   0.008212   0.000875 -17.888200   0.011874   0.000493 -28.292500  -1.643170   3.050930 -34.549600  -0.000748   0.001652 -23.010000   0.011083  -0.000802 -27.850100  -1.619600   3.063480 -31.358000  -0.010010   0.000405 -20.884400   0.000511   0.000245 -28.923200  -1.675810   3.032720 -43.451300  -0.002123   0.000185 -28.938600  -0.000314  -0.009951  12.338100   0.612165   8.163450  68.147200   4.582110  -4.969820  -2.950140  -6.132330  15.960000 -10.158500   2.297960   3.511670 -37.475100  35.275500  64.392400  36.650900   0.001233  -0.004977  13.325400   0.003515  -0.002631  34.261900  11.059100  15.733500  29.286100  -0.002126   0.002185  20.500300   0.000380   0.001938  36.491900   4.708880   6.335200  54.079400  -0.000828  -0.000125  36.226900   0.000808   0.002503  35.186300   2.556380   3.619620  52.900700  -0.002138   0.004607  35.231800   0.005462  -0.000866  46.984400  -3.377970  -3.146950  70.615800   0.005757   0.004888  47.030100   0.005667   0.003428   2.053270  12.866800   6.376550   0.277318   0.002039   2.034450   0.623806  -2.992920   4.170730  -0.000000   0.000000   0.000000   4.045680   7.947940   2.462920  -3.712850   7.078070  -8.904660   2.543930  -3.971610   3.372880  -0.000000   0.000000   0.000000
  2.627060  89.511700  -1.844770  -4.678980 -10.656300  -7.978700   0.138588   6.481170   1.168680   0.144330  12.963900   2.344370   0.736629  -1.260700   0.014070   1.214530  -2.555390   2.347280  -5.195460  -1.661820   2.793570 -72.250200  19.099400  -4.080910  -0.039992  -0.778783 -18.530200  11.007400  -4.883190   4.283970  42.290200  39.039900 -71.196900 -32.071600   0.000000   0.000042 -11.033200   0.001527   0.000000 -30.834700   5.234160  -8.682610 -25.554000   0.008220   0.000901 -17.887800   0.011870   0.000510 -28.292000  -1.646690   3.056690 -34.549200  -0.000777   0.001655 -23.009800   0.011111  -0.000790 -27.851300  -1.623090   3.069260 -31.358500  -0.010053   0.000406 -20.884700   0.000483   0.000254 -28.919700  -1.679510   3.038560 -43.446100  -0.002125   0.000188 -28.935200  -0.000316  -0.009948  12.340800   0.584288   8.160300  68.144900   4.676660  -4.958470  -3.020660  -6.207700  16.127300  -9.992890   2.258510   3.504460 -37.465700  35.193400  64.292200  36.604100   0.001274  -0.004983  13.302000   0.003499  -0.002641  34.220500  11.058000  15.751100  29.253800  -0.002065   0.002126  20.477700   0.000377   0.001863  36.442200   4.708740   6.345430  54.070800  -0.000844  -0.000123  36.208000   0.000684   0.002452  35.153300   2.544630   3.607540  52.850200  -0.002159   0.004607  35.198200   0.005431  -0.000907  46.936800  -3.360600  -3.136080  70.543300   0.005748   0.004887  46.981800   0.005620   0.003388   2.055240  12.852700   6.373420   0.284456   0.081186   2.025680   0.613571  -3.016140   4.180980  -0.000000   0.000000   0.000000   4.056330   7.948650   2.458990  -3.726450   7.125900  -8.882350   2.548010  -3.983450   3.358370  -0.000000   0.000000  -0.000000
